<svg width="75" height="80" viewBox="0 0 75 80" fill="none" xmlns="http://www.w3.org/2000/svg">
<path d="M27.835 59.3844L24.6267 65M47.0897 59.3844L50.298 65M18.853 38.2307C17.3749 37.1559 16.2468 35.6913 15.6032 34.0116C14.9596 32.3319 14.8278 30.5081 15.2234 28.7577C15.6191 27.0073 14.2941 16.3979 15.6032 15.1336C16.9122 13.8693 20.8 22.0034 22.6061 21.6273C24.4122 21.2512 26.2917 21.387 28.0203 22.0188C29.749 22.6505 31.2538 23.7513 32.3552 25.1899M37.4623 33.8709V43.2096L44.2694 49.8131M56.0716 38.2307C57.5497 37.1559 58.6779 35.6913 59.3215 34.0116C59.9651 32.3319 60.0969 30.5081 59.7012 28.7577C59.3056 27.0073 60.3352 16.3979 59.0262 15.1336C57.7171 13.8693 54.1246 22.0034 52.3186 21.6273C50.5125 21.2512 48.633 21.387 46.9043 22.0188C45.1757 22.6505 43.6709 23.7513 42.5695 25.1899M56.7158 43.2096C56.7158 53.5249 48.0957 61.8871 37.4623 61.8871C26.8289 61.8871 18.2088 53.5249 18.2088 43.2096C18.2088 32.8943 26.8289 24.5321 37.4623 24.5321C48.0957 24.5321 56.7158 32.8943 56.7158 43.2096Z" stroke="url(#paint0_linear_14_101)" stroke-width="4" stroke-linecap="round" stroke-linejoin="round"/>
<defs>
<linearGradient id="paint0_linear_14_101" x1="15" y1="15" x2="64.7149" y2="59.6685" gradientUnits="userSpaceOnUse">
<stop stop-color="#FF67A7"/>
<stop offset="1" stop-color="#FC8E50"/>
</linearGradient>
</defs>
</svg>
